<svg xmlns="http://www.w3.org/2000/svg" width="32" height="32"><g fill="#fff"><path d="M20.505 7.286a1 1 0 01-1.414 0A2.94 2.94 0 0017 6.421c-.82 0-1.553.329-2.091.865a.999.999 0 11-1.414-1.414A4.95 4.95 0 0117 4.421a4.95 4.95 0 013.505 1.451 1 1 0 010 1.414M8.894 6.331a10 10 0 00-2.369 1.923l-.001.001a10 10 0 00-1.683 2.558 9.9 9.9 0 00-.835 3.028 1 1 0 101.988.22 8 8 0 01.667-2.418 8 8 0 013.242-3.585 1 1 0 10-1.009-1.727M24 17.5a1 1 0 012 0 3.494 3.494 0 01-3.358 3.486c.223.459.358.969.358 1.514a1 1 0 01-2 0 1.5 1.5 0 00-1.5-1.5h-6.182a1 1 0 010-2H15.5a1.503 1.503 0 001.5-1.5 1 1 0 012 0c0 .539-.132 1.044-.35 1.5h3.85a1.503 1.503 0 001.5-1.5"/><path d="M32 16.711c0-.628-.045-1.236-.114-1.826C30.979 7.067 24.348 1.002 16.289 1h-1.232C6.74 1.001.001 7.74 0 16.057A5.943 5.943 0 005.943 22h1.241a6.494 6.494 0 006.316 5h7.104l3.116 3.116a.75.75 0 001.28-.53v-2.669a7.99 7.99 0 006.664-5.631c.143-.478.225-.982.277-1.495l.003-.008c.028-.092.056-.183.056-.283q-.001-.092-.008-.182l-.007-.115q.001-.048.007-.093Q32 19.055 32 19zm-2.252 4.004A6 6 0 0124 25H13.5a4.5 4.5 0 01-4.479-4.09l-.006-.064A4.974 4.974 0 0114 16a1 1 0 000-2 7 7 0 00-3.36.859 4 4 0 00-.812-1.188.999.999 0 10-1.414 1.414c.284.285.477.65.55 1.059A7 7 0 007.08 20H5.943a3.93 3.93 0 01-2.789-1.155A3.93 3.93 0 012 16.057c0-3.609 1.46-6.867 3.824-9.233A13 13 0 0115.057 3h1.232c6.69-.002 12.246 4.8 13.451 11.139a7.5 7.5 0 00-4.03-2.033c.503-.922.79-1.981.79-3.106a1 1 0 00-2 0 4.48 4.48 0 01-1.318 3.182A4.48 4.48 0 0120 13.5a1 1 0 000 2 6.47 6.47 0 004.215-1.558l.016.005A1 1 0 0024.5 14c1.522 0 2.891.614 3.889 1.611a5.48 5.48 0 011.596 3.592 6 6 0 01-.237 1.512"/></g></svg>