<svg xmlns="http://www.w3.org/2000/svg" width="32" height="32"><path fill="#fff" d="M29.502 3.415a3.56 3.56 0 00-4.974-.09L11.043 16.032l-.014-.002-2.129 2.1a2 2 0 00-.389.538 3.98 3.98 0 00-2.365.683A4.91 4.91 0 003.7 23.559a2.67 2.67 0 01-.7 1.925l-.789.739-.059.324a1.473 1.473 0 001.023 1.677l2.579.783.5.1q.623.115 1.257.115a7.02 7.02 0 005.39-2.527c.574-.684.9-1.539.93-2.426.25-.095.486-.244.69-.444l.798-.788.015.03L29.527 8.39a3.56 3.56 0 00-.025-4.974m-14.608 17.23l-2.81-2.846L25.9 4.78a1.559 1.559 0 012.19 2.218zm-8.28 6.496l-.33-.061L4.7 26.6a4.9 4.9 0 00.988-2.813 2.99 2.99 0 011.546-2.758 2 2 0 012.559.232l1.454 1.459a2 2 0 01.117 2.694 5.02 5.02 0 01-4.75 1.727"/></svg>