<svg xmlns="http://www.w3.org/2000/svg" width="32" height="32"><g fill="#fff"><path d="M15.201 28.995c4.28.147 7.799-3.102 7.799-7.144C23 14.707 15.479 10 15.479 10s-6.41 4.012-7.387 10.256c-.68 4.355 2.49 8.583 7.11 8.74"/><path d="M14.356.366a2.675 2.675 0 012.976.182C19.835 2.436 28 9.37 28 19.34A12.6 12.6 0 0115.489 32q-.376 0-.756-.023a12.04 12.04 0 01-8.619-4.428 13.8 13.8 0 01-3-10.526A22.05 22.05 0 017.75 6.394a2.06 2.06 0 011.65-.826 1.94 1.94 0 011.284.425 520 520 0 002.682-4.634c.238-.412.579-.754.99-.993m1.772 1.778a.68.68 0 00-.77-.047.7.7 0 00-.258.26c-1.128 1.972-4.372 7.586-4.722 7.991a.07.07 0 01-.055.03c-.156 0-.313-.714-.469-1.422-.153-.697-.305-1.388-.454-1.388a.08.08 0 00-.06.039 20.3 20.3 0 00-4.242 9.674c-.809 6.3 3.483 12.326 9.752 12.7q.32.02.637.019A10.587 10.587 0 0026 19.34c0-9.063-7.606-15.486-9.872-17.196"/></g></svg>