<svg xmlns="http://www.w3.org/2000/svg" width="32" height="32"><g fill="#fff"><path d="M21 16a5 5 0 10-10 0 5 5 0 0010 0m-.5 0a4.5 4.5 0 11-9 0 4.5 4.5 0 019 0"/><path d="M24 16a8 8 0 11-16 0 8 8 0 0116 0m-13.5 0a5.5 5.5 0 1011 0 5.5 5.5 0 00-11 0"/><path d="M3.697 23.79a3 3 0 00.876 1.996l1.641 1.637a3 3 0 004.059.169l1.423-1.2.155 1.858A3 3 0 0014.84 31h2.32a3 3 0 002.99-2.75l.154-1.858 1.424 1.2a3 3 0 004.059-.169l1.64-1.64a3 3 0 00.169-4.059l-1.2-1.423 1.858-.155a3 3 0 002.751-2.99v-2.319a3 3 0 00-2.751-2.99l-1.858-.155 1.2-1.423a3 3 0 00-.169-4.059l-1.64-1.64a3 3 0 00-4.059-.169l-1.424 1.2-.154-1.858a3 3 0 00-2.99-2.75h-2.32a3 3 0 00-2.989 2.75l-.155 1.858-1.423-1.2a3 3 0 00-4.059.17L4.573 6.21a3 3 0 00-.168 4.059l1.2 1.423-1.858.155a3 3 0 00-2.751 2.99v2.322a3 3 0 002.751 2.99l1.858.155-1.2 1.423a3 3 0 00-.708 2.062M14.161 3.261a1 1 0 01.679-.263l2.32-.006a1 1 0 011 .917l.236 2.825a1.5 1.5 0 002.464 1.021l2.163-1.831a1 1 0 011.354.056l1.64 1.64a1 1 0 01.056 1.353l-1.831 2.164a1.5 1.5 0 001.02 2.464l2.825.235a1 1 0 01.917 1v2.325a1 1 0 01-.917 1l-2.825.235a1.5 1.5 0 00-1.02 2.464l1.831 2.164a1 1 0 01-.056 1.353l-1.64 1.64a1 1 0 01-1.354.056l-2.163-1.831a1.5 1.5 0 00-2.464 1.021l-.236 2.825a1 1 0 01-1 .916h-2.32a1 1 0 01-1-.916l-.236-2.825a1.5 1.5 0 00-2.463-1.021l-2.164 1.831a1 1 0 01-1.353-.056l-1.64-1.64a1 1 0 01-.057-1.353l1.831-2.164a1.5 1.5 0 00-1.02-2.464l-2.825-.235a1 1 0 01-.917-1v-2.319a1 1 0 01.917-1l2.825-.235a1.5 1.5 0 001.02-2.464L5.927 8.98a1 1 0 01.057-1.353l1.64-1.64a1 1 0 011.353-.056l2.164 1.831a1.5 1.5 0 002.463-1.021l.236-2.825a1 1 0 01.32-.654"/></g></svg>